<?xml version="1.0" encoding="utf-8"?>
<!-- Generator: Adobe Illustrator 16.0.0, SVG Export Plug-In . SVG Version: 6.00 Build 0)  -->
<!DOCTYPE svg PUBLIC "-//W3C//DTD SVG 1.1//EN" "http://www.w3.org/Graphics/SVG/1.1/DTD/svg11.dtd">
<svg version="1.1" id="Calque_1" xmlns="http://www.w3.org/2000/svg" xmlns:xlink="http://www.w3.org/1999/xlink" x="0px" y="0px"
	 width="512px" height="512px" viewBox="0 0 512 512" enable-background="new 0 0 512 512" xml:space="preserve">
<g>
	<path fill-rule="evenodd" clip-rule="evenodd" d="M202.777,240.287c-0.072-0.773-0.145-1.547-0.217-2.32
		c0.038-1.085,0.11-2.17,0.11-3.254c0.006-45.138,0.006-90.275,0-135.413c0-1.084-0.074-2.17-0.113-3.254
		c0.335-1.952-0.955-1.789-2.197-1.688c-10.18-0.033-20.364,0.05-30.54-0.171c-3.134-0.067-3.787,1.098-3.783,3.945
		c0.066,46.362,0.057,92.726,0.009,139.088c-0.002,2.052,0.653,3.528,2.089,4.948c8.08,7.994,16.058,16.091,24.138,24.084
		c3.362,3.327,6.448,6.946,10.205,9.866c0.731,0.732,1.672,0.494,2.53,0.494c34.998,0.013,69.996,0.003,104.994,0.036
		c1.499,0.001,2.604-0.44,3.655-1.498c11.351-11.43,22.736-22.827,34.112-34.232c1.182-0.721,0.85-1.915,0.85-2.948
		c0.015-46.78-0.004-93.56,0.049-140.339c0.003-2.537-0.744-3.464-3.385-3.427c-9.591,0.135-19.187,0.053-28.779,0.057
		c-4.458,0.002-4.464,0.005-4.464,4.558c-0.002,45.395,0,90.791-0.004,136.186c0,4.982-0.008,4.975-5.104,4.975
		c-31.451-0.003-62.901-0.005-94.351,0.007c-1.277,0-2.555,0.152-3.833,0.234c-0.456,0-0.912,0-1.367,0
		c-0.336,0-0.673,0.001-1.009,0.001c-1.19,0.011-2.379,0.022-3.569,0.033L202.777,240.287z"/>
	<path fill-rule="evenodd" clip-rule="evenodd" d="M257.458,19.409c0-0.015,0-0.03,0-0.044c-30.473,0-60.945,0.07-91.417-0.041
		c-9.645-0.035-19.195,0.806-28.583,2.777c-23.751,4.988-44.694,15.705-62.442,32.268c-25.798,24.076-39.863,53.847-42.251,89.084
		c-0.54,7.968-0.496,7.855,7.632,7.961c2.577,0.034,3.291-0.625,3.375-3.244c0.746-23.059,7.062-44.489,20.191-63.53
		c23.51-34.097,56.129-53.099,97.566-53.697c63.898-0.922,127.821-0.379,191.732-0.169c21.854,0.072,42.234,6.346,60.582,18.12
		c34.128,21.9,53.199,53.178,56.794,93.73c0.25,2.817-0.811,6.553,1.069,8.216c1.865,1.652,5.491,0.341,8.335,0.527
		c1.831,0.12,2.385-0.545,2.305-2.383c-0.396-9.106-1.304-18.141-3.41-27.026c-6.862-28.943-21.547-53.071-44.47-72.106
		c-23.521-19.532-50.626-29.899-81.142-30.34C321.376,19.05,289.415,19.409,257.458,19.409z"/>
	<path fill-rule="evenodd" clip-rule="evenodd" d="M257.204,494.494c0,0.019,0,0.037,0,0.056c30.473,0,60.945-0.069,91.417,0.042
		c9.644,0.035,19.194-0.802,28.585-2.768c23.338-4.891,44.022-15.297,61.583-31.438c26.376-24.247,40.838-54.344,43.173-90.171
		c0.504-7.737,0.478-7.615-7.301-7.719c-2.733-0.037-3.643,0.559-3.74,3.505c-0.85,25.531-8.571,48.859-24.242,69.059
		c-24.641,31.76-57.346,48.033-97.613,48.174c-61.141,0.212-122.284,0.059-183.425,0.049c-6.335,0-12.641-0.371-18.919-1.334
		c-23.589-3.619-44.495-13.183-62.228-29.069c-24.425-21.883-38.008-49.308-40.478-82.139c-0.202-2.681,0.92-6.407-1.171-7.788
		c-1.945-1.283-5.362-0.27-8.125-0.407c-1.773-0.088-2.417,0.449-2.361,2.337c0.572,19.344,4.857,37.805,13.302,55.219
		c8.264,17.039,19.72,31.59,34.324,43.739c23.27,19.357,50.005,29.924,80.167,30.512
		C192.491,494.981,224.852,494.494,257.204,494.494z"/>
	<path fill-rule="evenodd" clip-rule="evenodd" fill="#46385B" d="M245.423,312.837c-14.759,0.306-22.958,7.494-24.523,20.746
		c-0.736,6.24,2.477,11.472,8.393,13.367c5.717,1.831,11.536,1.806,17.213-0.035c5.059-1.64,9.056-4.798,11.497-9.658
		c0.395-0.788,1.382-1.997-0.28-2.317c-1.552-0.299-3.396-0.72-4.412,1.313c-3.478,6.954-12.203,9.624-20.984,7.203
		c-4.109-1.133-6.512-4.721-6.311-8.954c0.57-11.999,8.902-19.042,20.833-17.481c4.29,0.562,7.839,2.341,8.691,7.131
		c0.459,2.583,2.32,1.984,3.9,1.896c2.129-0.118,1.476-1.752,1.263-2.894c-0.71-3.825-2.703-6.712-6.36-8.353
		C251.213,313.396,247.927,312.905,245.423,312.837z"/>
	<path fill-rule="evenodd" clip-rule="evenodd" fill="#46385B" d="M102.55,344.301c-9.021,0.045-12.139-3.768-10.314-12.678
		c1.03-5.027,2.159-10.035,3.178-15.064c0.2-0.985,1.312-2.542-0.746-2.755c-1.589-0.164-3.639-0.916-4.192,1.847
		c-1.26,6.289-2.802,12.526-3.95,18.835c-1.051,5.771,1.175,9.925,6.088,12.161c2.472,1.125,5.148,1.423,7.8,1.549
		c10.6,0.511,20.09-3.765,22.391-16.411c0.883-4.853,2.068-9.648,3.019-14.489c0.248-1.263,1.495-3.066-0.979-3.543
		c-2.186-0.422-3.629,0.089-4.065,2.806c-0.843,5.256-2.051,10.455-3.207,15.657C115.705,340.614,111.128,344.259,102.55,344.301z"
		/>
	<path fill-rule="evenodd" clip-rule="evenodd" fill="#46385B" d="M139.234,348.327c4.241-0.009,7.801-0.761,10.399-2.128
		c3.36-1.767,5.467-5.336,4.964-8.404c-0.443-2.696-2.581-4.202-7.011-4.865c-2.933-0.438-5.884-0.76-8.808-1.245
		c-1.489-0.247-2.984-0.808-3.349-2.5c-0.348-1.618,0.473-2.846,1.82-3.746c4.261-2.844,11.784-1.658,14.755,2.371
		c1.068,1.449,2.623,1.126,3.759,0.656c1.279-0.53,0.593-1.902,0.178-2.865c-0.826-1.913-2.335-3.284-4.242-3.929
		c-5.639-1.903-11.323-1.763-16.826,0.483c-3.419,1.396-5.094,4.65-4.646,8.137c0.318,2.485,2.877,4.454,6.585,5.005
		c2.835,0.421,5.677,0.794,8.519,1.168c1.8,0.237,3.722,0.385,3.995,2.716c0.261,2.214-1.18,3.566-2.957,4.351
		c-3.342,1.476-6.867,1.74-10.448,0.934c-2.054-0.464-3.732-1.453-4.292-3.62c-0.587-2.276-2.289-1.552-3.576-1.263
		c-1.613,0.362-0.948,1.764-0.635,2.702c0.801,2.399,2.569,3.945,4.885,4.855C134.635,348.056,137.06,348.471,139.234,348.327z"/>
	<path fill-rule="evenodd" clip-rule="evenodd" fill="#46385B" d="M415.116,320.421c-1.667-0.126-4.202,0.35-6.672,1.048
		c-4.299,1.218-6.652,4.488-6.302,8.503c0.249,2.875,2.811,4.802,7.185,5.396c3.033,0.412,6.087,0.708,9.098,1.25
		c3.064,0.553,3.883,3.207,1.817,5.496c-4.002,4.438-13.919,3.413-16.828-1.76c-0.852-1.518-2.202-1.031-3.378-0.866
		c-1.566,0.22-0.993,1.489-0.792,2.352c0.525,2.264,1.98,3.961,4.051,4.828c6.5,2.725,12.974,2.363,19.106-1.036
		c2.956-1.639,4.631-4.463,4.036-7.951c-0.617-3.631-3.772-4.234-6.741-4.733c-3.017-0.508-6.073-0.777-9.092-1.28
		c-1.484-0.247-2.963-0.851-3.291-2.555c-0.315-1.643,0.586-2.823,1.932-3.692c4.367-2.82,11.653-1.625,14.729,2.434
		c1.066,1.409,2.578,1.093,3.763,0.612c1.145-0.463,0.547-1.72,0.231-2.623c-0.47-1.348-1.392-2.403-2.555-3.19
		C422.583,320.731,419.34,320.471,415.116,320.421z"/>
	<path fill-rule="evenodd" clip-rule="evenodd" fill="#46385B" d="M392.114,324.639c1.383,0,2.767-0.008,4.148,0.001
		c1.569,0.011,1.637-1.221,1.762-2.26c0.174-1.437-1.006-1.197-1.829-1.222c-1.678-0.051-3.371-0.146-5.035,0.017
		c-2.852,0.278-3.845-0.676-2.8-3.496c0.756-2.042-0.052-2.807-2.241-2.867c-2.29-0.063-2.632,1.354-2.796,2.965
		c-0.229,2.252-0.939,3.789-3.625,3.399c-1.636-0.237-1.988,1.007-2.166,2.212c-0.263,1.778,1.199,1.269,1.997,1.237
		c1.849-0.07,2.182,0.734,1.817,2.354c-0.862,3.851-1.678,7.713-2.441,11.584c-1.404,7.12,1.549,10.369,8.775,9.688
		c0.979-0.093,1.961-0.272,2.91-0.525c1.329-0.355,3.032-0.688,2.619-2.535c-0.467-2.087-2.055-0.701-3.113-0.549
		c-4.935,0.71-6.947-1.243-6.099-6.154c0.504-2.915,1.172-5.803,1.764-8.704C386.805,324.664,386.805,324.664,392.114,324.639z"/>
	<path fill-rule="evenodd" clip-rule="evenodd" fill="#46385B" d="M273.397,323.451c0.492-1.858-0.457-2.239-2.198-2.352
		c-2.194-0.141-2.637,1.151-2.982,2.797c-1.44,6.855-2.942,13.697-4.308,20.568c-0.194,0.979-1.522,2.674,0.826,2.976
		c1.783,0.23,3.604,0.396,4.023-2.206c0.457-2.821,1.14-5.607,1.731-8.407c1.201-5.688,3.995-10.054,9.876-11.831
		c2.016-0.61,4.114-0.668,6.167-0.505c1.867,0.147,2.477-0.725,2.643-2.314c0.217-2.059-1.369-1.593-2.405-1.589
		c-4.148,0.016-8.037,0.863-11.193,3.847c-0.534,0.505-1.073,1.43-1.956,0.978C272.87,325.026,273.391,324.173,273.397,323.451z"/>
	<path fill-rule="evenodd" clip-rule="evenodd" fill="#46385B" d="M204.096,325.939c-0.446-1.013-0.085-1.965,0.159-2.905
		c0.33-1.269-0.095-1.804-1.426-1.896c-1.994-0.14-3.294,0.153-3.759,2.578c-1.321,6.887-2.929,13.719-4.398,20.576
		c-0.258,1.202-0.95,2.753,0.98,3.116c1.748,0.328,3.513,0.439,3.917-2.195c0.494-3.219,1.312-6.388,2.011-9.572
		c1.438-6.545,6.208-10.685,12.85-11.124c1.28-0.085,2.569-0.012,3.854-0.042c1.586-0.036,1.464-1.357,1.641-2.351
		c0.215-1.212-0.588-1.524-1.617-1.531c-4.354-0.031-8.469,0.663-11.864,3.725C205.75,324.945,205.272,325.95,204.096,325.939z"/>
	<path fill-rule="evenodd" clip-rule="evenodd" fill="#46385B" d="M369.553,321.188c-2.146-0.502-2.598,0.927-2.95,2.628
		c-1.419,6.846-2.891,13.681-4.347,20.519c-0.617,2.901,0.242,3.701,3.146,3.147c1.637-0.312,1.552-1.62,1.783-2.688
		c1.518-7.025,2.902-14.082,4.493-21.092C372.145,321.655,371.69,320.879,369.553,321.188z"/>
	<path fill-rule="evenodd" clip-rule="evenodd" fill="#46385B" d="M370.517,317.012c1.858-0.099,3.612-0.405,3.708-2.598
		c0.071-1.64-1.354-2.129-2.676-2.086c-1.827,0.059-3.731,0.479-3.757,2.835C367.773,316.923,369.325,316.896,370.517,317.012z"/>
	<path fill-rule="evenodd" clip-rule="evenodd" fill="#5BA9C8" d="M257.458,19.409c31.956,0,63.918-0.358,95.867,0.104
		c30.516,0.441,57.62,10.808,81.142,30.34c22.923,19.036,37.607,43.163,44.47,72.106c2.106,8.885,3.015,17.919,3.41,27.026
		c0.08,1.838-0.474,2.503-2.305,2.383c-2.844-0.187-6.47,1.125-8.335-0.527c-1.88-1.664-0.819-5.399-1.069-8.216
		c-3.595-40.553-22.666-71.83-56.794-93.73c-18.348-11.774-38.729-18.048-60.582-18.12c-63.911-0.21-127.833-0.753-191.732,0.169
		c-41.437,0.598-74.056,19.6-97.566,53.697c-13.129,19.041-19.445,40.471-20.191,63.53c-0.084,2.619-0.798,3.278-3.375,3.244
		c-8.128-0.106-8.172,0.007-7.632-7.961c2.388-35.237,16.453-65.008,42.251-89.084c17.748-16.563,38.69-27.28,62.442-32.268
		c9.388-1.971,18.938-2.812,28.583-2.777c30.472,0.111,60.944,0.041,91.417,0.041C257.458,19.379,257.458,19.394,257.458,19.409z"/>
	<path fill-rule="evenodd" clip-rule="evenodd" fill="#5BA9C8" d="M257.204,494.494c-32.352,0-64.713,0.487-97.053-0.143
		c-30.162-0.588-56.897-11.154-80.167-30.512c-14.604-12.149-26.06-26.7-34.324-43.739c-8.445-17.414-12.73-35.875-13.302-55.219
		c-0.056-1.888,0.588-2.425,2.361-2.337c2.762,0.138,6.18-0.876,8.125,0.407c2.092,1.381,0.97,5.107,1.171,7.788
		c2.469,32.831,16.053,60.256,40.478,82.139c17.733,15.887,38.639,25.45,62.228,29.069c6.279,0.963,12.584,1.334,18.919,1.334
		c61.142,0.01,122.285,0.163,183.425-0.049c40.268-0.141,72.973-16.414,97.613-48.174c15.671-20.199,23.393-43.527,24.242-69.059
		c0.098-2.946,1.007-3.542,3.74-3.505c7.778,0.104,7.805-0.019,7.301,7.719c-2.335,35.827-16.797,65.924-43.173,90.171
		c-17.561,16.142-38.245,26.548-61.583,31.438c-9.391,1.966-18.941,2.803-28.585,2.768c-30.472-0.111-60.944-0.042-91.417-0.042
		C257.204,494.531,257.204,494.513,257.204,494.494z"/>
	<path fill-rule="evenodd" clip-rule="evenodd" fill="#46385B" d="M202.479,276.118c-3.757-2.92-6.843-6.539-10.205-9.866
		c-8.081-7.993-16.059-16.09-24.138-24.084c-1.436-1.42-2.091-2.896-2.089-4.948c0.047-46.362,0.057-92.726-0.009-139.088
		c-0.004-2.848,0.649-4.013,3.783-3.945c10.176,0.221,20.36,0.138,30.54,0.171c0.478,0.896,1.255,1.398,2.197,1.688
		c0.04,1.084,0.113,2.17,0.113,3.254c0.006,45.138,0.006,90.275,0,135.413c0,1.084-0.072,2.169-0.11,3.254
		c-0.993,0.874-0.57,1.614,0.217,2.32c0,0,0.028-0.034,0.026-0.034c-0.031,4.646-0.028,9.292-0.098,13.937
		C202.595,261.5,203,268.814,202.479,276.118z"/>
	<path fill-rule="evenodd" clip-rule="evenodd" fill="#45385A" d="M208.75,240.219c1.278-0.082,2.556-0.233,3.833-0.234
		c31.45-0.012,62.899-0.01,94.351-0.007c5.096,0,5.104,0.007,5.104-4.975c0.004-45.395,0.002-90.791,0.004-136.186
		c0-4.553,0.006-4.556,4.464-4.558c9.593-0.003,19.188,0.078,28.779-0.057c2.641-0.037,3.388,0.89,3.385,3.427
		c-0.053,46.78-0.034,93.559-0.049,140.339c0,1.034,0.332,2.228-0.85,2.949c-1.109-0.971-2.456-0.56-3.694-0.56
		c-43.927-0.003-87.854,0.022-131.782,0.033C211.113,240.393,209.932,240.279,208.75,240.219z"/>
	<path fill-rule="evenodd" clip-rule="evenodd" fill="#5BA9C8" d="M208.75,240.219c1.182,0.06,2.363,0.173,3.544,0.173
		c43.928-0.011,87.855-0.036,131.782-0.033c1.238,0,2.585-0.411,3.694,0.56c-11.376,11.405-22.762,22.802-34.112,34.231
		c-1.052,1.058-2.156,1.499-3.655,1.498c-34.998-0.033-69.996-0.023-104.994-0.036c-0.858,0-1.799,0.238-2.53-0.494
		c0.521-7.304,0.116-14.618,0.227-21.928c0.07-4.645,0.067-9.291,0.098-13.937c1.191-0.011,2.381-0.022,3.569-0.033
		c0.336,0,0.673,0,1.011-0.001C207.839,240.219,208.295,240.219,208.75,240.219z"/>
	<path fill-rule="evenodd" clip-rule="evenodd" fill="#46385B" d="M245.423,312.837c2.504,0.068,5.791,0.56,8.919,1.964
		c3.657,1.641,5.65,4.527,6.36,8.353c0.213,1.142,0.866,2.775-1.263,2.894c-1.58,0.088-3.44,0.687-3.9-1.896
		c-0.852-4.79-4.401-6.569-8.691-7.131c-11.93-1.561-20.262,5.482-20.833,17.481c-0.202,4.233,2.201,7.821,6.311,8.954
		c8.781,2.421,17.506-0.249,20.984-7.203c1.016-2.032,2.86-1.611,4.412-1.313c1.662,0.32,0.675,1.529,0.28,2.317
		c-2.441,4.86-6.438,8.019-11.497,9.658c-5.677,1.841-11.496,1.866-17.213,0.035c-5.917-1.896-9.129-7.127-8.393-13.367
		C222.464,320.331,230.664,313.143,245.423,312.837z"/>
	<path fill-rule="evenodd" clip-rule="evenodd" fill="#46385B" d="M336.235,348.323c-1.874-0.11-4.139-0.292-6.287-1.137
		c-3.912-1.535-6.073-4.68-6.134-8.902c-0.176-12.451,11.524-20.859,23.294-16.758c1.348,0.469,2.525,1.183,3.424,2.255
		c1.393,1.662,1.816,0.724,2.133-0.7c0.664-2.989,1.43-5.96,1.956-8.973c0.429-2.453,2.202-1.847,3.667-1.8
		c2.045,0.066,1.343,1.643,1.138,2.652c-1.365,6.676-2.619,13.384-4.294,19.984C352.874,343.841,346.265,348.461,336.235,348.323z
		 M337.706,344.717c8.163,0,13.884-6.521,12.824-14.666c-0.367-2.825-1.955-4.646-4.721-5.462
		c-7.391-2.183-14.654,1.994-16.434,9.48C327.792,340.73,330.91,344.717,337.706,344.717z"/>
	<path fill-rule="evenodd" clip-rule="evenodd" fill="#46385B" d="M102.55,344.301c8.578-0.042,13.155-3.687,15.021-12.086
		c1.156-5.202,2.364-10.401,3.207-15.657c0.436-2.717,1.879-3.228,4.065-2.806c2.475,0.477,1.228,2.28,0.979,3.543
		c-0.951,4.841-2.135,9.637-3.019,14.489c-2.3,12.646-11.791,16.922-22.391,16.411c-2.651-0.126-5.328-0.424-7.8-1.549
		c-4.913-2.236-7.139-6.39-6.088-12.161c1.148-6.309,2.69-12.546,3.95-18.835c0.553-2.763,2.603-2.011,4.192-1.847
		c2.058,0.213,0.946,1.77,0.746,2.755c-1.019,5.029-2.148,10.037-3.178,15.064C90.411,340.533,93.529,344.346,102.55,344.301z"/>
	<path fill-rule="evenodd" clip-rule="evenodd" fill="#46385B" d="M177.426,335.627c-3.561,0-7.122,0.06-10.68-0.021
		c-2.171-0.051-2.756,0.977-2.508,2.943c0.433,3.436,3.179,5.93,7.235,6.205c4.636,0.314,8.866-0.682,11.994-4.475
		c0.532-0.646,1.073-1.17,1.949-1.156c0.965,0.017,2.22-0.407,2.79,0.439c0.655,0.975-0.467,1.818-1.011,2.549
		c-4.595,6.177-17.482,8.243-23.875,3.85c-2.316-1.593-3.685-3.809-3.994-6.639c-0.927-8.465,3.964-15.719,12.195-17.947
		c3.662-0.992,7.363-1.253,11.141-0.434c6.112,1.325,9.586,7.069,7.876,13.071c-0.396,1.389-1.285,1.595-2.433,1.596
		c-3.56,0.007-7.12,0.003-10.68,0.003C177.426,335.616,177.426,335.622,177.426,335.627z M175.722,332.652c0,0.013,0,0.027,0,0.04
		c2.374,0,4.747-0.004,7.12,0.001c3.242,0.008,3.899-0.785,3.062-3.866c-0.367-1.351-1.045-2.539-2.2-3.431
		c-4.949-3.825-15.605-0.853-17.956,4.971c-0.623,1.541-0.295,2.27,1.372,2.279C169.988,332.664,172.855,332.652,175.722,332.652z"
		/>
	<path fill-rule="evenodd" clip-rule="evenodd" fill="#46385B" d="M307.266,335.63c-3.459,0-6.922,0.101-10.376-0.033
		c-2.586-0.101-3.011,1.231-2.655,3.326c0.552,3.249,3.343,5.581,7.25,5.844c4.531,0.306,8.635-0.722,11.795-4.284
		c0.388-0.438,0.795-0.997,1.304-1.162c1.132-0.366,2.611-0.65,3.396,0.172c0.943,0.986-0.35,1.951-0.951,2.729
		c-4.636,5.985-17.01,8.104-23.382,4.004c-2.74-1.764-4.269-4.252-4.401-7.616c-0.556-13.921,11.096-19.411,22.011-17.886
		c7.081,0.989,10.03,5.149,9.294,12.22c-0.204,1.957-0.86,2.795-2.907,2.722C314.187,335.541,310.725,335.63,307.266,335.63z
		 M305.224,332.688c2.56,0,5.119,0.014,7.68-0.004c3.074-0.021,3.579-0.695,2.911-3.735c-0.329-1.506-1.046-2.725-2.318-3.635
		c-5.15-3.682-15.52-0.717-17.887,5.097c-0.711,1.745-0.121,2.326,1.641,2.287C299.907,332.642,302.567,332.685,305.224,332.688z"/>
	<path fill-rule="evenodd" clip-rule="evenodd" fill="#46385B" d="M139.234,348.327c-2.174,0.144-4.6-0.271-6.93-1.188
		c-2.316-0.91-4.084-2.456-4.885-4.855c-0.313-0.938-0.978-2.34,0.635-2.702c1.287-0.289,2.989-1.014,3.576,1.263
		c0.56,2.167,2.238,3.156,4.292,3.62c3.581,0.807,7.106,0.542,10.448-0.934c1.777-0.784,3.218-2.137,2.957-4.351
		c-0.273-2.331-2.194-2.479-3.995-2.716c-2.841-0.374-5.684-0.747-8.519-1.168c-3.708-0.551-6.268-2.52-6.585-5.005
		c-0.447-3.486,1.227-6.741,4.646-8.137c5.502-2.246,11.187-2.387,16.826-0.483c1.907,0.645,3.416,2.016,4.242,3.929
		c0.416,0.963,1.102,2.335-0.178,2.865c-1.136,0.47-2.691,0.793-3.759-0.656c-2.971-4.029-10.494-5.215-14.755-2.371
		c-1.347,0.9-2.168,2.128-1.82,3.746c0.364,1.692,1.86,2.253,3.349,2.5c2.924,0.485,5.875,0.807,8.808,1.245
		c4.43,0.663,6.568,2.169,7.011,4.865c0.503,3.068-1.604,6.638-4.964,8.404C147.035,347.566,143.476,348.318,139.234,348.327z"/>
	<path fill-rule="evenodd" clip-rule="evenodd" fill="#46385B" d="M415.116,320.421c4.225,0.05,7.467,0.311,10.297,2.23
		c1.163,0.787,2.085,1.843,2.555,3.19c0.315,0.903,0.913,2.16-0.231,2.623c-1.185,0.48-2.696,0.797-3.763-0.612
		c-3.075-4.059-10.361-5.254-14.729-2.434c-1.346,0.869-2.247,2.05-1.932,3.692c0.328,1.704,1.807,2.308,3.291,2.555
		c3.019,0.503,6.075,0.772,9.092,1.28c2.969,0.499,6.124,1.103,6.741,4.733c0.595,3.488-1.08,6.313-4.036,7.951
		c-6.133,3.399-12.606,3.761-19.106,1.036c-2.07-0.867-3.525-2.564-4.051-4.828c-0.201-0.862-0.774-2.132,0.792-2.352
		c1.176-0.165,2.526-0.651,3.378,0.866c2.909,5.173,12.826,6.197,16.828,1.76c2.065-2.289,1.247-4.943-1.817-5.496
		c-3.011-0.542-6.064-0.838-9.098-1.25c-4.374-0.594-6.936-2.521-7.185-5.396c-0.351-4.015,2.003-7.285,6.302-8.503
		C410.914,320.771,413.449,320.295,415.116,320.421z"/>
	<path fill-rule="evenodd" clip-rule="evenodd" fill="#46385B" d="M392.114,324.639c-5.309,0.025-5.309,0.025-6.353,5.145
		c-0.592,2.901-1.26,5.789-1.764,8.704c-0.849,4.911,1.164,6.864,6.099,6.154c1.059-0.152,2.646-1.538,3.113,0.549
		c0.413,1.847-1.29,2.18-2.619,2.535c-0.949,0.253-1.932,0.433-2.91,0.525c-7.227,0.682-10.18-2.567-8.775-9.688
		c0.764-3.871,1.579-7.733,2.441-11.584c0.364-1.62,0.031-2.425-1.817-2.354c-0.798,0.031-2.26,0.541-1.997-1.237
		c0.178-1.205,0.53-2.449,2.166-2.212c2.686,0.39,3.396-1.147,3.625-3.399c0.164-1.611,0.506-3.028,2.796-2.965
		c2.189,0.061,2.997,0.825,2.241,2.867c-1.045,2.82-0.052,3.774,2.8,3.496c1.664-0.163,3.357-0.067,5.035-0.017
		c0.823,0.024,2.003-0.215,1.829,1.222c-0.125,1.039-0.192,2.271-1.762,2.26C394.88,324.631,393.497,324.639,392.114,324.639z"/>
	<path fill-rule="evenodd" clip-rule="evenodd" fill="#46385B" d="M273.397,323.451c-0.006,0.722-0.527,1.575,0.224,1.961
		c0.883,0.452,1.422-0.473,1.956-0.978c3.156-2.983,7.045-3.831,11.193-3.847c1.036-0.004,2.622-0.47,2.405,1.589
		c-0.166,1.59-0.775,2.462-2.643,2.314c-2.053-0.163-4.151-0.105-6.167,0.505c-5.881,1.777-8.675,6.144-9.876,11.831
		c-0.592,2.8-1.274,5.586-1.731,8.407c-0.42,2.602-2.24,2.437-4.023,2.206c-2.349-0.302-1.021-1.996-0.826-2.976
		c1.365-6.871,2.867-13.713,4.308-20.568c0.346-1.646,0.788-2.938,2.982-2.797C272.94,321.212,273.889,321.593,273.397,323.451z
		 M273.479,326.172c-0.092-0.119-0.17-0.239-0.272-0.333c-0.016-0.015-0.208,0.098-0.203,0.138c0.018,0.156,0.082,0.308,0.129,0.461
		C273.248,326.349,273.364,326.261,273.479,326.172z"/>
	<path fill-rule="evenodd" clip-rule="evenodd" fill="#46385B" d="M204.096,325.939c1.177,0.011,1.654-0.994,2.349-1.622
		c3.395-3.062,7.51-3.756,11.864-3.725c1.029,0.007,1.832,0.319,1.617,1.531c-0.177,0.993-0.054,2.314-1.641,2.351
		c-1.285,0.03-2.574-0.043-3.854,0.042c-6.643,0.439-11.413,4.579-12.85,11.124c-0.7,3.185-1.518,6.354-2.011,9.572
		c-0.403,2.635-2.168,2.523-3.917,2.195c-1.931-0.363-1.238-1.914-0.98-3.116c1.469-6.857,3.077-13.689,4.398-20.576
		c0.465-2.425,1.765-2.718,3.759-2.578c1.331,0.093,1.756,0.628,1.426,1.896C204.011,323.975,203.649,324.927,204.096,325.939z"/>
	<path fill-rule="evenodd" clip-rule="evenodd" fill="#46385B" d="M369.553,321.188c2.137-0.31,2.592,0.467,2.126,2.515
		c-1.591,7.01-2.976,14.066-4.493,21.092c-0.231,1.067-0.146,2.376-1.783,2.688c-2.904,0.554-3.764-0.246-3.146-3.147
		c1.456-6.838,2.928-13.673,4.347-20.519C366.956,322.115,367.407,320.687,369.553,321.188z"/>
	<path fill-rule="evenodd" clip-rule="evenodd" fill="#46385B" d="M370.517,317.012c-1.192-0.115-2.744-0.089-2.725-1.849
		c0.025-2.355,1.93-2.776,3.757-2.835c1.321-0.043,2.747,0.446,2.676,2.086C374.129,316.606,372.375,316.913,370.517,317.012z"/>
	<path fill-rule="evenodd" clip-rule="evenodd" fill="#45385A" d="M202.558,96.045c-0.942-0.29-1.719-0.792-2.197-1.688
		C201.603,94.256,202.893,94.094,202.558,96.045z"/>
	<path fill-rule="evenodd" clip-rule="evenodd" fill="#45385A" d="M202.777,240.287c-0.787-0.707-1.209-1.447-0.217-2.32
		C202.633,238.74,202.706,239.514,202.777,240.287z"/>
	<path fill-rule="evenodd" clip-rule="evenodd" fill="#45385A" d="M207.383,240.219c-0.337,0-0.675,0.001-1.011,0.001
		C206.71,240.22,207.047,240.22,207.383,240.219z"/>
	<path fill-rule="evenodd" clip-rule="evenodd" fill="#46385B" d="M273.479,326.172c-0.115,0.089-0.231,0.177-0.347,0.266
		c-0.047-0.153-0.111-0.305-0.129-0.461c-0.005-0.04,0.188-0.152,0.203-0.138C273.309,325.933,273.387,326.053,273.479,326.172z"/>
</g>
</svg>
